<svg xmlns="http://www.w3.org/2000/svg" width="32" height="32" viewBox="0 0 8.467 8.467"><path d="M16.456 30.652a1.642 1.642 0 0 1 1.275-1.933 1.642 1.642 0 0 1 1.94 1.266 1.642 1.642 0 0 1-1.256 1.946 1.642 1.642 0 0 1-1.952-1.246M17.75 26.825c0-.405.63-.412.63 0v.895c0 .382-.63.389-.63 0zM14.56 30.641c-.406 0-.412-.629 0-.629h.894c.383 0 .39.63 0 .63zM20.711 30.641c-.405 0-.412-.629 0-.629h.895c.383 0 .39.63 0 .63zM17.75 32.932c0-.406.63-.412.63 0v.894c0 .383-.63.39-.63 0zM20.153 28.666c-.287.287-.736-.153-.445-.445l.632-.632c.271-.271.72.17.445.445zM15.755 33.076c-.287.287-.737-.153-.445-.445l.632-.632c.27-.271.72.17.445.445ZM15.357 28.04c-.286-.287.154-.736.445-.445l.633.633c.27.27-.17.72-.445.444zM19.8 32.435c-.287-.287.153-.737.445-.445l.632.632c.271.271-.17.72-.445.445z" style="fill:#b5efff;fill-opacity:1;stroke:#0765d6;stroke-width:.5;stroke-linecap:round;stroke-dasharray:none;stroke-opacity:1;paint-order:stroke fill markers" transform="translate(-13.841 -26.084)"/></svg>