<svg class="icon" width="459.285" height="459.285" viewBox="0 0 121.519 121.519" xml:space="preserve" xmlns="http://www.w3.org/2000/svg">
	<path fill="hsl(235, 55%, 36%)" d="M67.733 19.14v100.34c40.57 0 54.112-26.228 52.527-42.502 11.308-3.868 12.82-36.98-7.346-35.842-6.169-12.414-17.898-21.997-45.18-21.997Zm0 0v100.34c-40.57 0-54.112-26.228-52.527-42.502-11.308-3.868-12.82-36.98 7.346-35.842 6.169-12.414 17.898-21.997 45.18-21.997Z" transform="translate(-6.973 -8.55)" />
	<path fill="hsl(0, 0%, 100%)" d="M67.733 22.246v4.944s3.075-.115 4.23 1.044c1.464 1.473 1.297 5.4.777 6.665-.52 1.264-1.793 1.798-2.108 2.048 0 1.343-.02 1.837-.02 2.885-1.264.683-2.266.677-2.879.677v29.232c19.336 0 32.443-7.576 36.451-18.9.978-2.763 1.834-2.685 1.33.162-2.06 11.639-13.57 23.61-37.78 23.61v41.571c24.45 0 51.966-13.956 48.355-42.476 2.883-.513 5.191-1.71 7.14-5.718 3.754-9.45.802-25.772-11.366-22.935-6.377-11.915-17.77-22.81-44.13-22.81zm47.307 29.257c4.143.01 5.627 12.44 1.207 13.785-2.453.746-3.754-2.4-4.324-5.61-.571-3.21-.145-6.537 1.813-7.814.433-.282.893-.362 1.304-.361zM67.733 22.246v4.944s-3.075-.115-4.23 1.044c-1.464 1.473-1.297 5.4-.777 6.665.52 1.264 1.793 1.798 2.108 2.048 0 1.343.02 1.837.02 2.885 1.264.683 2.266.677 2.879.677v29.232c-19.336 0-32.443-7.576-36.451-18.9-.978-2.763-1.834-2.685-1.33.162 2.06 11.639 13.57 23.61 37.78 23.61v41.571c-24.45 0-51.966-13.956-48.355-42.476-2.883-.513-5.191-1.71-7.14-5.718-3.754-9.45-.802-25.772 11.366-22.935 6.377-11.915 17.77-22.81 44.13-22.81ZM20.426 51.503c-4.143.01-5.627 12.44-1.207 13.785 2.453.746 3.754-2.4 4.324-5.61.571-3.21.145-6.537-1.813-7.814-.433-.282-.893-.362-1.304-.361z" transform="translate(-6.973 -8.455)"/>
</svg>
